{"title":"Osmosis Jones 2001 720p WEB-DL x264 SSloco","uid":11982539,"size":768734367,"categoryP":"video","categoryS":"hd___movies","magnet":"?xt=urn:btih:0a357e62a3cb62af19cf17adbfce53cf31ab6a21&amp;dn=Osmosis+Jones+2001+720p+WEB-DL+x264+SSloco&amp;tr=udp%3A%2F%2Ftracker.openbittorrent.com%3A80&amp;tr=udp%3A%2F%2Fopen.demonii.com%3A1337&amp;tr=udp%3A%2F%2Ftracker.coppersurfer.tk%3A6969&amp;tr=udp%3A%2F%2Fexodus.desync.com%3A6969","seeders":15,"leechers":2,"uploader":"myhoes14","files":1,"time":1433255659,"description":"Source:Osmosis Jones 2001 720p WEB-DL HDCLUB\n\nMedia Info\n\n\n\nFormat : MPEG-4\nFormat profile : Base Media\nCodec ID : isom\nFile size : 733 MiB\nDuration : 1h 35mn\nOverall bit rate mode : Variable\nOverall bit rate : 1 074 Kbps\nEncoded date : UTC 2015-04-03 04:43:56\nTagged date : UTC 2015-04-03 04:43:56\n\nVideo\nID : 1\nFormat : AVC\nFormat/Info : Advanced Video Codec\nFormat profile : &lt;a class=&quot;__cf_email__&quot; href=&quot;/cdn-cgi/l/email-protection&quot; data-cfemail=&quot;e2aa8b858aa2aed6ccd3&quot;&gt;[email&amp;#160;protected]&lt;/a&gt;&lt;script data-cfhash='f9e31' type=&quot;text/javascript&quot;&gt;\n/* &lt;![CDATA[ */!function(){try{var t=&quot;currentScript&quot;in document?document.currentScript:function(){for(var t=document.getElementsByTagName(&quot;script&quot;),e=t.length;e--;)if(t[e].getAttribute(&quot;data-cfhash&quot;))return t[e]}();if(t&amp;&amp;t.previousSibling){var e,r,n,i,c=t.previousSibling,a=c.getAttribute(&quot;data-cfemail&quot;);if(a){for(e=&quot;&quot;,r=parseInt(a.substr(0,2),16),n=2;a.length-n;n+=2)i=parseInt(a.substr(n,2),16)^r,e+=String.fromCharCode(i);e=document.createTextNode(e),c.parentNode.replaceChild(e,c)}t.parentNode.removeChild(t);}}catch(u){}}()/* ]]&gt; */&lt;/script&gt;\nFormat settings, CABAC : Yes\nFormat settings, ReFrames : 9 frames\nCodec ID : avc1\nCodec ID/Info : Advanced Video Coding\nDuration : 1h 35mn\nBit rate : 1 000 Kbps\nMaximum bit rate : 5 275 Kbps\nWidth : 1 248 pixels\nHeight : 528 pixels\nDisplay aspect ratio : 2.35:1\nFrame rate mode : Constant\nFrame rate : 23.976 fps\nColor space : YUV\nChroma subsampling : 4:2:0\nBit depth : 8 bits\nScan type : Progressive\nBits/(Pixel*Frame) : 0.063\nStream size : 682 MiB (93%)\nWriting library : x264 core 146 r2538 121396c\nEncoding settings : cabac=1 / ref=9 / deblock=1:-1:-1 / analyse=0x3:0x113 / me=hex / subme=7 / psy=1 / psy_rd=1.00:0.15 / mixed_ref=1 / me_range=16 / chroma_me=1 / trellis=1 / 8x8dct=1 / cqm=0 / deadzone=21,11 / fast_pskip=1 / chroma_qp_offset=-3 / threads=6 / lookahead_threads=2 / sliced_threads=0 / nr=0 / decimate=1 / interlaced=0 / bluray_compat=0 / constrained_intra=0 / bframes=9 / b_pyramid=2 / b_adapt=2 / b_bias=0 / direct=1 / weightb=1 / open_gop=0 / weightp=2 / keyint=240 / keyint_min=23 / scenecut=40 / intra_refresh=0 / rc_lookahead=40 / rc=2pass / mbtree=1 / bitrate=1000 / ratetol=1.0 / qcomp=0.60 / qpmin=0 / qpmax=69 / qpstep=4 / cplxblur=20.0 / qblur=0.5 / vbv_maxrate=62500 / vbv_bufsize=78125 / nal_hrd=none / filler=0 / ip_ratio=1.40 / aq=1:1.00\nEncoded date : UTC 2015-04-03 04:43:56\nTagged date : UTC 2015-04-03 04:45:35\nColor primaries : BT.709\nMatrix coefficients : BT.709\nColor range : Limited\n\nAudio\nID : 2\nFormat : AAC\nFormat/Info : Advanced Audio Codec\nFormat profile : HE-AAC / LC\nCodec ID : 40\nDuration : 1h 35mn\nBit rate mode : Variable\nBit rate : 72.0 Kbps\nMaximum bit rate : 94.7 Kbps\nChannel(s) : 2 channels\nChannel positions : Front: L R\nSampling rate : 48.0 KHz / 24.0 KHz\nCompression mode : Lossy\nStream size : 48.7 MiB (7%)\nLanguage : English\nEncoded date : UTC 2015-04-03 04:36:07\nTagged date : UTC 2015-04-03 04:45:35\n\nMenu\n00:00:00.000 : 1\n00:11:04.000 : 2\n00:18:16.000 : 3\n00:26:25.000 : 4\n00:32:09.000 : 5\n00:40:44.000 : 6\n00:48:38.000 : 7\n00:55:35.000 : 8\n01:05:25.000 : 9\n01:12:58.000 : 10\n01:19:02.000 : 11\n01:26:56.000 : 12","torrent":{"xt":"urn:btih:0a357e62a3cb62af19cf17adbfce53cf31ab6a21","amp;dn":"Osmosis+Jones+2001+720p+WEB-DL+x264+SSloco","amp;tr":["udp%3A%2F%2Ftracker.openbittorrent.com%3A80","udp%3A%2F%2Fopen.demonii.com%3A1337","udp%3A%2F%2Ftracker.coppersurfer.tk%3A6969","udp%3A%2F%2Fexodus.desync.com%3A6969"],"infoHash":"0a357e62a3cb62af19cf17adbfce53cf31ab6a21","infoHashBuffer":{"type":"Buffer","data":[10,53,126,98,163,203,98,175,25,207,23,173,191,206,83,207,49,171,106,33]},"announce":[],"urlList":[]}}